<svg enable-background="new 0 0 24 24" height="24" viewBox="0 0 24 24" width="24" xmlns="http://www.w3.org/2000/svg"><path d="m0 0h24v24h-24z" fill="none"/><path d="m0 0h24v24h-24z" fill="none"/><path d="m10.3 7.7c-.39.39-.39 1.01 0 1.4l1.9 1.9h-9.2c-.55 0-1 .45-1 1 0 .55.45 1 1 1h9.2l-1.9 1.9c-.39.39-.39 1.01 0 1.4.39.39 1.01.39 1.4 0l3.59-3.59c.39-.39.39-1.02 0-1.41l-3.59-3.6c-.39-.39-1.01-.39-1.4 0zm9.7 11.3h-7c-.55 0-1 .45-1 1 0 .55.45 1 1 1h7c1.1 0 2-.9 2-2v-14c0-1.1-.9-2-2-2h-7c-.55 0-1 .45-1 1 0 .55.45 1 1 1h7z"/></svg>